<svg width="128" height="128" viewBox="0 0 128 128" xmlns="http://www.w3.org/2000/svg">
    <!-- Background -->
    <circle cx="64" cy="64" r="60" fill="#2C3E50"/>
    
    <!-- Scroll/Paper -->
    <path d="M35 30
             C35 30, 85 30, 85 30
             C95 30, 95 40, 85 40
             C85 40, 35 40, 35 40
             C25 40, 25 30, 35 30
             M35 30
             L35 90
             C35 90, 85 90, 85 90
             C95 90, 95 100, 85 100
             C85 100, 35 100, 35 100
             C25 100, 25 90, 35 90"
          fill="#ECF0F1"/>
    
    <!-- Lines representing text -->
    <line x1="38" y1="50" x2="75" y2="50" stroke="#95A5A6" stroke-width="3"/>
    <line x1="38" y1="60" x2="75" y2="60" stroke="#95A5A6" stroke-width="3"/>
    <line x1="38" y1="70" x2="75" y2="70" stroke="#95A5A6" stroke-width="3"/>
    <line x1="38" y1="80" x2="65" y2="80" stroke="#95A5A6" stroke-width="3"/>
    
    <!-- New Quill -->
    <g transform="translate(64, 32) rotate(15) scale(1.3)">
        <path d="M21.709,10.597l2.781-1.662c-0.02-0.279-0.047-0.553-0.078-0.819C23.798,2.683,21.511,0,21.511,0
            c-5.262,3.497-7.617,10.224-7.617,10.224l0.77,2.582l-1.426-0.646C10.773,19.239,13.4,27.04,13.4,27.04
            c0.207,0.309,0.432,0.525,0.662,0.68c3.045-13.508,4.994-18.381,4.994-18.381c-0.688,1.754-2.508,11.943-3.664,18.666
            c0.572-0.082,1-0.363,1-0.363c8.557-9.391,7.799-17.211,7.799-17.211C23.593,10.087,21.709,10.597,21.709,10.597z"
            fill="#E74C3C"/>
        <path d="M14.062,27.72c-0.434,1.92-1.695,6.381-2.172,8.66l1.162-1.346c0,0,1.305-3.934,2.34-7.029
            C14.99,28.064,14.517,28.021,14.062,27.72z"
            fill="#C0392B"/>
    </g>
</svg>
